<?xml version="1.0" encoding="utf-8"?>
<!-- Generator: Adobe Illustrator 24.0.0, SVG Export Plug-In . SVG Version: 6.00 Build 0)  -->
<svg version="1.1" id="Ebene_1" xmlns="http://www.w3.org/2000/svg" xmlns:xlink="http://www.w3.org/1999/xlink" x="0px" y="0px"
         viewBox="0 0 73.8 89" style="enable-background:new 0 0 73.8 89;" xml:space="preserve">
<style type="text/css">
        .st2{fill:#F7A600;}
	.st3{fill:url(#SVGID_1_);}
	.st4{fill:url(#SVGID_2_);}
	.st5{fill:url(#SVGID_3_);}
	.st6{fill:url(#SVGID_4_);}
	.st7{fill:url(#SVGID_5_);}
	.st8{fill:url(#SVGID_6_);}
	.st9{fill:url(#SVGID_7_);}
	.st10{fill:url(#SVGID_8_);}
	.st11{fill:url(#SVGID_9_);}
	.st12{fill:url(#SVGID_10_);}
</style>
<g>
	<polygon class="st2" points="62.6,-0.2 51.2,22.2 47.3,34.5 36.1,28.4 0,14.4 24.2,60.7 62.6,71.2 73.8,39.1 	"/>
	<g>
		
			<radialGradient id="SVGID_1_" cx="3343.0537" cy="2570.1719" r="162.7596" gradientTransform="matrix(0.4037 2.936470e-02 -3.471803e-02 0.4028 -1217.2046 -1096.3282)" gradientUnits="userSpaceOnUse">
			<stop  offset="0" style="stop-color:#F6A500"/>
			<stop  offset="1" style="stop-color:#E25910"/>
		</radialGradient>
		<polygon class="st3" points="36.1,28.4 48.4,44.1 47.3,34.5 		"/>
		
			<radialGradient id="SVGID_2_" cx="3359.2476" cy="2524.1086" r="695.488" gradientTransform="matrix(0.4037 2.936470e-02 -3.471803e-02 0.4028 -1217.5641 -1092.1569)" gradientUnits="userSpaceOnUse">
			<stop  offset="0" style="stop-color:#F6A500"/>
			<stop  offset="1" style="stop-color:#E25910"/>
		</radialGradient>
		<polygon class="st4" points="62.6,-0.2 51.2,22.2 51.9,37.6 		"/>
		
			<radialGradient id="SVGID_3_" cx="3361.6011" cy="2608.4761" r="167.1484" gradientTransform="matrix(0.4037 2.936470e-02 -3.471803e-02 0.4028 -1216.9056 -1099.797)" gradientUnits="userSpaceOnUse">
			<stop  offset="0" style="stop-color:#F6A500"/>
			<stop  offset="1" style="stop-color:#E25910"/>
		</radialGradient>
		<polyline class="st5" points="51.2,22.2 48.4,44.1 62.6,71.1 51.9,37.6 51.2,22.2 		"/>
		
			<radialGradient id="SVGID_4_" cx="3408.2959" cy="2567.3633" r="158.5451" gradientTransform="matrix(0.4037 2.936470e-02 -3.471803e-02 0.4028 -1217.2264 -1096.0739)" gradientUnits="userSpaceOnUse">
			<stop  offset="0" style="stop-color:#FFE27E"/>
			<stop  offset="1" style="stop-color:#F6A500"/>
		</radialGradient>
		<polygon class="st6" points="47.3,34.5 51.2,22.2 48.4,44.1 		"/>
		
			<radialGradient id="SVGID_5_" cx="3383.052" cy="2447.6987" r="174.0433" gradientTransform="matrix(0.4037 2.936470e-02 -3.471803e-02 0.4028 -1218.1606 -1085.2371)" gradientUnits="userSpaceOnUse">
			<stop  offset="0" style="stop-color:#FFE27E"/>
			<stop  offset="1" style="stop-color:#F6A500"/>
		</radialGradient>
		<polyline class="st7" points="51.9,37.6 73.8,39.1 62.6,-0.2 51.9,37.6 		"/>
		
			<radialGradient id="SVGID_6_" cx="3354.8232" cy="-1808.2635" r="187.7471" gradientTransform="matrix(0.1491 0.2946 -0.4852 0.1388 -1311.7299 -717.4459)" gradientUnits="userSpaceOnUse">
			<stop  offset="0" style="stop-color:#FFE27E"/>
			<stop  offset="1" style="stop-color:#F6A500"/>
		</radialGradient>
		<polyline class="st8" points="51.9,37.6 62.6,71.2 73.8,39.1 51.9,37.6 		"/>
		
			<radialGradient id="SVGID_7_" cx="-6229.6748" cy="1221.8748" r="504.8669" gradientTransform="matrix(-0.2792 -0.2327 0.3777 -0.2712 -2165.6353 -1069.9747)" gradientUnits="userSpaceOnUse">
			<stop  offset="0" style="stop-color:#F6A500"/>
			<stop  offset="1" style="stop-color:#E25910"/>
		</radialGradient>
		<polyline class="st9" points="0,14.4 43.1,39.1 43.1,39.1 24.2,60.7 0,14.4 		"/>
		
			<radialGradient id="SVGID_8_" cx="3940.9204" cy="-422.4447" r="503.7974" gradientTransform="matrix(0.2748 0.2358 -0.383 0.2666 -1234.2186 -797.7366)" gradientUnits="userSpaceOnUse">
			<stop  offset="0" style="stop-color:#F6A500"/>
			<stop  offset="1" style="stop-color:#E25910"/>
		</radialGradient>
		<polyline class="st10" points="43.1,39.1 24.2,60.7 62.6,71.2 43.1,39.1 		"/>
		
			<radialGradient id="SVGID_9_" cx="3335.4204" cy="2465.7065" r="143.7842" gradientTransform="matrix(0.4037 2.936470e-02 -3.471803e-02 0.4028 -1218.0199 -1086.8678)" gradientUnits="userSpaceOnUse">
			<stop  offset="0" style="stop-color:#FFE27E"/>
			<stop  offset="1" style="stop-color:#F6A500"/>
		</radialGradient>
		<polygon class="st11" points="0,14.4 36.1,28.4 43.1,39.1 		"/>
		
			<radialGradient id="SVGID_10_" cx="3311.6099" cy="2661.8938" r="153.0182" gradientTransform="matrix(0.4047 1.259210e-02 -1.492033e-02 0.4047 -1232.9038 -1086.2001)" gradientUnits="userSpaceOnUse">
			<stop  offset="0" style="stop-color:#FFE27E"/>
			<stop  offset="1" style="stop-color:#F6A500"/>
		</radialGradient>
		<polygon class="st12" points="36.1,28.4 48.4,44.1 62.6,71.1 43.1,39.1 		"/>
	</g>
</g>
</svg>
