<?xml version="1.0" encoding="utf-8"?>
<!-- Generator: Adobe Illustrator 24.0.0, SVG Export Plug-In . SVG Version: 6.00 Build 0)  -->
<svg version="1.1" id="Ebene_1" xmlns="http://www.w3.org/2000/svg" xmlns:xlink="http://www.w3.org/1999/xlink" x="0px" y="0px"
	 viewBox="0 0 205 89" style="enable-background:new 0 0 205 89;" xml:space="preserve">
<style type="text/css">
	.st0{fill:#F7A600;}
	.st1{fill:#E1D9E3;}
	.st2{fill:#FFFFFF;}
	.st3{fill:url(#SVGID_1_);}
	.st4{fill:url(#SVGID_2_);}
	.st5{fill:url(#SVGID_3_);}
	.st6{fill:url(#SVGID_4_);}
	.st7{fill:url(#SVGID_5_);}
	.st8{fill:url(#SVGID_6_);}
	.st9{fill:url(#SVGID_7_);}
	.st10{fill:url(#SVGID_8_);}
	.st11{fill:url(#SVGID_9_);}
	.st12{fill:url(#SVGID_10_);}
</style>
<polygon class="st0" points="62.6,0 51.2,22.4 47.3,34.7 36.1,28.6 0,14.6 24.2,60.9 62.6,71.4 73.8,39.3 "/>
<path class="st1" d="M100.4,80h1.2v3.8c0,2.2-1,3.1-2.6,3.1s-2.6-0.9-2.6-3.1V80h1.2v3.9c0,1.5,0.6,2,1.4,2s1.4-0.5,1.4-2V80z
	 M105.9,81.5c-0.7,0-1.2,0.4-1.7,0.8l0,0l-0.1-0.7h-1v5.1h1.2v-3.6c0.4-0.4,0.7-0.6,1.2-0.6c0.6,0,0.8,0.3,0.8,1.2v3h1.2v-3.2
	C107.5,82.3,107,81.5,105.9,81.5z M109.1,81.1v0.5l-0.7,0.1v0.9h0.7v4.2h1.2v-4.2h1v-0.9h-1v-0.6c0-0.6,0.2-0.9,0.6-0.9
	c0.2,0,0.4,0,0.6,0.1l0.2-0.9c-0.2-0.1-0.6-0.2-0.9-0.2C109.6,79.3,109.1,80.1,109.1,81.1z M114.2,81.5c-1.3,0-2.4,1-2.4,2.7
	s1.2,2.7,2.4,2.7c1.3,0,2.4-1,2.4-2.7S115.5,81.5,114.2,81.5z M114.2,85.9c-0.7,0-1.2-0.7-1.2-1.7s0.4-1.7,1.2-1.7s1.2,0.7,1.2,1.7
	C115.4,85.2,114.9,85.9,114.2,85.9z M119.3,85.9c-0.1,0-0.3-0.1-0.3-0.4v-6.1h-1.2v6c0,0.9,0.3,1.4,1.2,1.4c0.3,0,0.5,0,0.6-0.1
	L119.3,85.9C119.3,85.9,119.3,85.9,119.3,85.9z M123.8,79.4v1.8V82c-0.4-0.3-0.8-0.6-1.3-0.6c-1.1,0-2.2,1-2.2,2.7s0.8,2.7,2.1,2.7
	c0.5,0,1.1-0.3,1.4-0.7l0,0l0.1,0.6h1v-7.3H123.8z M123.8,85.3c-0.3,0.4-0.7,0.6-1.1,0.6c-0.7,0-1.2-0.6-1.2-1.7s0.5-1.7,1.2-1.7
	c0.3,0,0.7,0.1,1,0.4L123.8,85.3L123.8,85.3z M126.5,86.8h1.2v-5.1h-1.2V86.8z M127.1,79.4c-0.4,0-0.7,0.3-0.7,0.7
	c0,0.4,0.3,0.7,0.7,0.7c0.4,0,0.7-0.3,0.7-0.7C127.8,79.7,127.5,79.4,127.1,79.4z M132,81.5c-0.7,0-1.2,0.4-1.7,0.8l0,0l-0.1-0.7h-1
	v5.1h1.2v-3.6c0.4-0.4,0.7-0.6,1.2-0.6c0.6,0,0.8,0.3,0.8,1.2v3h1.2v-3.2C133.5,82.3,133.1,81.5,132,81.5z M137.6,86h-0.9
	c-0.6,0-0.8-0.2-0.8-0.5c0-0.2,0.1-0.4,0.2-0.5c0.2,0.1,0.5,0.1,0.7,0.1c1.1,0,1.9-0.6,1.9-1.7c0-0.4-0.1-0.7-0.3-0.9h0.9v-0.9h-1.8
	c-0.2-0.1-0.5-0.1-0.7-0.1c-1.1,0-2,0.7-2,1.8c0,0.6,0.3,1.1,0.7,1.3l0,0c-0.3,0.2-0.6,0.6-0.6,0.9c0,0.4,0.2,0.7,0.5,0.9l0,0
	c-0.5,0.3-0.7,0.7-0.7,1.1c0,0.9,0.9,1.3,2.1,1.3c1.7,0,2.7-0.8,2.7-1.8C139.5,86.3,138.8,86,137.6,86z M136.8,82.4
	c0.5,0,0.9,0.4,0.9,1c0,0.7-0.4,1-0.9,1s-0.9-0.4-0.9-1C135.9,82.7,136.3,82.4,136.8,82.4z M137,88.2c-0.8,0-1.3-0.3-1.3-0.7
	c0-0.2,0.1-0.5,0.4-0.7c0.2,0.1,0.4,0.1,0.7,0.1h0.7c0.6,0,0.9,0.1,0.9,0.5C138.3,87.8,137.8,88.2,137,88.2z M144.8,84.2
	c-0.1,0.5-0.3,1-0.4,1.4l0,0c-0.2-0.5-0.3-1-0.4-1.4l-0.9-2.5h-1.2l2,5l-0.1,0.3c-0.2,0.5-0.5,0.9-1,0.9c-0.1,0-0.3,0-0.4-0.1
	l-0.2,0.9c0.2,0.1,0.4,0.1,0.7,0.1c1.1,0,1.6-0.7,2.1-1.9l1.8-5.3h-1.2L144.8,84.2z M149.7,81.5c-1.3,0-2.4,1-2.4,2.7
	s1.2,2.7,2.4,2.7c1.3,0,2.4-1,2.4-2.7C152.1,82.5,151,81.5,149.7,81.5z M149.7,85.9c-0.7,0-1.2-0.7-1.2-1.7s0.4-1.7,1.2-1.7
	c0.7,0,1.2,0.7,1.2,1.7C150.9,85.2,150.4,85.9,149.7,85.9z M156.3,85.2c-0.4,0.5-0.7,0.7-1.1,0.7c-0.5,0-0.8-0.3-0.8-1.2v-3h-1.2
	v3.2c0,1.3,0.5,2,1.6,2c0.7,0,1.2-0.3,1.6-0.9l0,0l0.1,0.7h1v-5.1h-1.2L156.3,85.2L156.3,85.2z M160.2,82.6L160.2,82.6l-0.1-0.9h-1
	v5.1h1.2v-3.1c0.3-0.8,0.8-1,1.2-1c0.2,0,0.4,0,0.5,0.1l0.2-1c-0.2-0.1-0.3-0.1-0.6-0.1C161.1,81.5,160.5,81.9,160.2,82.6z
	 M167.7,81.5c-0.6,0-1.1,0.3-1.5,0.7l0,0l-0.1-0.5h-1v7.1h1.2v-1.6v-0.9c0.4,0.4,0.9,0.6,1.3,0.6c1.1,0,2.2-1,2.2-2.7
	C169.7,82.6,169,81.5,167.7,81.5z M167.3,85.9c-0.3,0-0.7-0.1-1-0.4v-2.4c0.4-0.4,0.7-0.6,1.1-0.6c0.8,0,1.1,0.6,1.1,1.6
	C168.5,85.3,167.9,85.9,167.3,85.9z M173,81.5c-1.3,0-2.4,1-2.4,2.7s1.2,2.7,2.4,2.7c1.3,0,2.4-1,2.4-2.7S174.3,81.5,173,81.5z
	 M173,85.9c-0.7,0-1.2-0.7-1.2-1.7s0.4-1.7,1.2-1.7c0.7,0,1.2,0.7,1.2,1.7C174.2,85.2,173.7,85.9,173,85.9z M178.7,85.9
	c-0.5,0-0.7-0.3-0.7-0.9v-2.4h1.3v-0.9H178v-1.4h-1l-0.1,1.4l-0.8,0.1v0.9h0.7V85c0,1.1,0.4,1.8,1.6,1.8c0.4,0,0.8-0.1,1-0.2
	l-0.2-0.9C179.1,85.9,178.9,85.9,178.7,85.9z M184.4,84c0-1.4-0.7-2.4-2.1-2.4c-1.2,0-2.3,1-2.3,2.7s1.1,2.7,2.5,2.7
	c0.6,0,1.3-0.2,1.7-0.6l-0.4-0.7c-0.4,0.2-0.7,0.4-1.2,0.4c-0.8,0-1.4-0.5-1.5-1.4h3.2C184.3,84.4,184.4,84.2,184.4,84z M181.1,83.8
	c0.1-0.9,0.6-1.3,1.2-1.3c0.7,0,1,0.5,1,1.3H181.1z M188.3,81.5c-0.7,0-1.2,0.4-1.7,0.8l0,0l-0.1-0.7h-1v5.1h1.2v-3.6
	c0.4-0.4,0.7-0.6,1.2-0.6c0.6,0,0.8,0.3,0.8,1.2v3h1.2v-3.2C189.9,82.3,189.4,81.5,188.3,81.5z M193.4,85.9c-0.5,0-0.7-0.3-0.7-0.9
	v-2.4h1.3v-0.9h-1.3v-1.4h-1l-0.1,1.4l-0.8,0.1v0.9h0.7V85c0,1.1,0.4,1.8,1.6,1.8c0.4,0,0.8-0.1,1-0.2l-0.2-0.9
	C193.8,85.9,193.6,85.9,193.4,85.9z M195.1,86.8h1.2v-5.1h-1.2V86.8z M195.7,79.4c-0.4,0-0.7,0.3-0.7,0.7c0,0.4,0.3,0.7,0.7,0.7
	s0.7-0.3,0.7-0.7C196.4,79.7,196.1,79.4,195.7,79.4z M199.9,81.5c-0.8,0-1.5,0.3-2.1,0.7l0.4,0.8c0.4-0.3,0.9-0.5,1.4-0.5
	c0.7,0,0.9,0.5,0.9,1c-2.1,0.2-3,0.8-3,1.9c0,0.9,0.6,1.5,1.5,1.5c0.6,0,1.1-0.3,1.6-0.7l0,0l0.1,0.6h1v-3
	C201.8,82.3,201.1,81.5,199.9,81.5z M200.6,85.4c-0.4,0.4-0.7,0.6-1.1,0.6c-0.4,0-0.7-0.2-0.7-0.7s0.5-0.9,1.8-1V85.4z M204.8,85.9
	c-0.1,0-0.1,0-0.2,0c-0.1,0-0.3-0.1-0.3-0.4v-6.1h-1.2v6c0,0.9,0.3,1.4,1.2,1.4c0.3,0,0.5,0,0.6-0.1L204.8,85.9z"/>
<path class="st2" d="M91.3,43.6c-0.5-0.1-1.4-0.2-2.4-0.2c-1.1,0-1.9,0.1-2.5,0.2l-9.2,27.6l0.1,0.2c0.7,0.2,1.4,0.3,2.2,0.3
	c0.8,0,1.4-0.1,1.8-0.2l2.2-6.8h2.4h5.6h2.4l1.5,4.8c0.3,0.9,0.6,1.5,1,1.8s1,0.5,1.9,0.5s1.6-0.2,2.2-0.6L91.3,43.6z M90.7,61.2
	h-4.1h-2.1l2.4-7.4c0.7-2.4,1.3-4.4,1.6-5.9h0.2c0.5,1.9,1.2,4.3,2.2,7.4l1.9,5.9C92.5,61.2,91.8,61.2,90.7,61.2z M106.9,71.2
	c1,0.5,2.3,0.8,3.7,0.8c2.9,0,5.3-1,7.3-3c-0.1-0.5-0.3-0.9-0.7-1.4c-0.4-0.5-0.7-0.8-1.1-1.1c-1.8,1.4-3.4,2-4.9,2
	c-3.1,0-4.6-2.3-4.6-7c0-2.5,0.4-4.3,1.1-5.6s1.7-1.9,3-1.9c2.4,0,3.6,1.5,3.6,4.6V59c0.5,0.1,1,0.2,1.8,0.2c1.4,0,2.1-0.8,2.1-2.3
	c0-0.8-0.2-1.5-0.5-2.3c-0.3-0.7-0.8-1.4-1.5-2c-0.6-0.6-1.4-1-2.3-1.4s-2-0.5-3.1-0.5s-2.2,0.2-3.2,0.7s-1.9,1.1-2.7,2
	c-0.8,0.9-1.4,2-1.9,3.2c-0.5,1.3-0.7,2.8-0.7,4.4c0,1.6,0.2,3.1,0.5,4.4c0.3,1.3,0.9,2.5,1.5,3.4C105,69.9,105.9,70.7,106.9,71.2z
	 M132.5,70.1c0-0.6-0.1-1.2-0.3-1.8h-2.8c-1.1,0-1.7-0.6-1.7-1.8V54.4l5,0.1c0.1-0.4,0.2-1,0.2-1.5c0-0.6-0.1-1.1-0.2-1.6l-5,0.1v-6
	l-0.3-0.3h-1.6c-0.8,0-1.4,0.2-1.8,0.6c-0.3,0.4-0.5,1.1-0.5,2.1v3.6l-3-0.1c-0.1,0.5-0.2,1.1-0.2,1.6c0,0.6,0.1,1.1,0.2,1.5h3v13
	c0,2.8,1.4,4.2,4.3,4.2c1.5,0,3-0.1,4.6-0.3C132.5,71.2,132.5,70.8,132.5,70.1z M152.4,57.1c-0.4-1.3-1-2.4-1.7-3.4
	c-0.7-0.9-1.7-1.7-2.8-2.2s-2.3-0.8-3.8-0.8c-1.4,0-2.7,0.3-3.8,0.8s-2,1.2-2.8,2.2c-0.7,0.9-1.3,2.1-1.7,3.4
	c-0.4,1.3-0.6,2.7-0.6,4.3s0.2,3.1,0.6,4.3c0.4,1.3,1,2.4,1.7,3.3s1.7,1.7,2.8,2.2s2.3,0.8,3.8,0.8c2.4,0,4.4-0.7,5.9-2.2
	c1.9-1.9,2.9-4.7,2.9-8.4C153,59.8,152.8,58.4,152.4,57.1z M144.2,68.8c-2.9,0-4.4-2.5-4.4-7.4s1.5-7.4,4.4-7.4c3,0,4.5,2.5,4.5,7.4
	C148.6,66.3,147.2,68.8,144.2,68.8z M168.4,55.7c0.4,0.6,0.6,1.6,0.6,3v10.4c0,0.9,0.2,1.6,0.5,2s1,0.7,1.9,0.7c1,0,1.8-0.3,2.5-0.9
	c-0.5-0.9-0.7-2.1-0.7-3.7v-9.5c0-2-0.4-3.7-1.3-4.9c-0.9-1.2-2.3-1.8-4.1-1.8c-2.3,0-4.5,0.9-6.5,2.7c-0.1-1.7-0.9-2.5-2.3-2.5
	h-1.6l-0.2,0.2v20.1c0.3,0.1,0.6,0.1,0.9,0.1c0.4,0,0.7,0,1.2,0c0.9,0,1.6-0.1,2.1-0.2V57.3c0.7-0.8,1.5-1.4,2.5-1.9
	c0.9-0.4,1.9-0.7,2.8-0.7C167.4,54.8,168.1,55.1,168.4,55.7z M181.3,48.1c1.1,0,1.8-0.2,2.1-0.4c0.3-0.3,0.5-0.9,0.5-1.9
	s-0.2-1.7-0.5-1.9s-1-0.4-2.1-0.4c-1,0-1.6,0.1-2,0.3s-0.6,0.9-0.6,2c0,0.7,0.1,1.3,0.4,1.8C179.5,47.9,180.3,48.1,181.3,48.1z
	 M180,71.5c0.5,0.1,1.2,0.2,2.1,0.2c0.9,0,1.6-0.1,2.1-0.2V54.8c0-1.1-0.3-2-0.9-2.7c-0.6-0.7-1.4-1-2.4-1h-0.6
	c-0.8,0-1.7,0.1-2.6,0.2c-0.1,0.6-0.2,1.1-0.2,1.5s0.1,0.9,0.2,1.5h0.4c0.7,0,1.1,0.2,1.4,0.5c0.3,0.3,0.4,0.9,0.4,1.6v15.1H180z
	 M204.1,67.6c-0.4-0.5-0.7-0.8-1.1-1.1c-1.8,1.4-3.4,2-4.9,2c-3.1,0-4.6-2.3-4.6-7c0-2.5,0.4-4.3,1.1-5.6c0.7-1.3,1.7-1.9,3-1.9
	c2.4,0,3.6,1.5,3.6,4.6V59c0.5,0.1,1,0.2,1.8,0.2c1.4,0,2.1-0.8,2.1-2.3c0-0.8-0.2-1.5-0.5-2.3c-0.3-0.7-0.8-1.4-1.5-2
	c-0.6-0.6-1.4-1-2.3-1.4c-0.9-0.4-2-0.5-3.1-0.5s-2.2,0.2-3.2,0.7s-1.9,1.1-2.7,2s-1.4,2-1.9,3.2c-0.5,1.3-0.7,2.8-0.7,4.4
	c0,1.6,0.2,3.1,0.5,4.4c0.3,1.3,0.9,2.5,1.5,3.4c0.7,1,1.6,1.7,2.6,2.2s2.3,0.8,3.7,0.8c2.9,0,5.3-1,7.3-3
	C204.6,68.5,204.4,68.1,204.1,67.6z"/>
<g>
	
		<radialGradient id="SVGID_1_" cx="1985.4274" cy="-918.1576" r="162.7596" gradientTransform="matrix(0.4037 2.936470e-02 3.471803e-02 -0.4028 -726.4855 -390.8558)" gradientUnits="userSpaceOnUse">
		<stop  offset="0" style="stop-color:#F6A500"/>
		<stop  offset="1" style="stop-color:#E25910"/>
	</radialGradient>
	<polygon class="st3" points="36.1,28.6 48.4,44.3 47.3,34.7 	"/>
	
		<radialGradient id="SVGID_2_" cx="2001.6213" cy="-872.0944" r="695.488" gradientTransform="matrix(0.4037 2.936470e-02 3.471803e-02 -0.4028 -726.845 -386.6844)" gradientUnits="userSpaceOnUse">
		<stop  offset="0" style="stop-color:#F6A500"/>
		<stop  offset="1" style="stop-color:#E25910"/>
	</radialGradient>
	<polygon class="st4" points="62.6,0 51.2,22.4 51.9,37.8 	"/>
	
		<radialGradient id="SVGID_3_" cx="2003.9747" cy="-956.4619" r="167.1484" gradientTransform="matrix(0.4037 2.936470e-02 3.471803e-02 -0.4028 -726.1865 -394.3246)" gradientUnits="userSpaceOnUse">
		<stop  offset="0" style="stop-color:#F6A500"/>
		<stop  offset="1" style="stop-color:#E25910"/>
	</radialGradient>
	<polyline class="st5" points="51.2,22.4 48.4,44.3 62.6,71.3 51.9,37.8 51.2,22.4 	"/>
	
		<radialGradient id="SVGID_4_" cx="2050.6697" cy="-915.3492" r="158.5451" gradientTransform="matrix(0.4037 2.936470e-02 3.471803e-02 -0.4028 -726.5073 -390.6014)" gradientUnits="userSpaceOnUse">
		<stop  offset="0" style="stop-color:#FFE27E"/>
		<stop  offset="1" style="stop-color:#F6A500"/>
	</radialGradient>
	<polygon class="st6" points="47.3,34.7 51.2,22.4 48.4,44.3 	"/>
	
		<radialGradient id="SVGID_5_" cx="2025.4258" cy="-795.6846" r="174.0433" gradientTransform="matrix(0.4037 2.936470e-02 3.471803e-02 -0.4028 -727.4415 -379.7646)" gradientUnits="userSpaceOnUse">
		<stop  offset="0" style="stop-color:#FFE27E"/>
		<stop  offset="1" style="stop-color:#F6A500"/>
	</radialGradient>
	<polyline class="st7" points="51.9,37.8 73.8,39.3 62.6,0 51.9,37.8 	"/>
	
		<radialGradient id="SVGID_6_" cx="2017.667" cy="1301.2369" r="187.7471" gradientTransform="matrix(0.1491 0.2946 0.4852 -0.1388 -866.3505 -393.7201)" gradientUnits="userSpaceOnUse">
		<stop  offset="0" style="stop-color:#FFE27E"/>
		<stop  offset="1" style="stop-color:#F6A500"/>
	</radialGradient>
	<polyline class="st8" points="51.9,37.8 62.6,71.4 73.8,39.3 51.9,37.8 	"/>
	
		<radialGradient id="SVGID_7_" cx="-2809.7859" cy="-262.394" r="504.8669" gradientTransform="matrix(-0.2792 -0.2327 -0.3777 0.2712 -848.4064 -534.2029)" gradientUnits="userSpaceOnUse">
		<stop  offset="0" style="stop-color:#F6A500"/>
		<stop  offset="1" style="stop-color:#E25910"/>
	</radialGradient>
	<polyline class="st9" points="0,14.6 43.1,39.3 43.1,39.3 24.2,60.9 0,14.6 	"/>
	
		<radialGradient id="SVGID_8_" cx="2242.5229" cy="603.3278" r="503.7974" gradientTransform="matrix(0.2748 0.2358 0.383 -0.2666 -836.7772 -348.8562)" gradientUnits="userSpaceOnUse">
		<stop  offset="0" style="stop-color:#F6A500"/>
		<stop  offset="1" style="stop-color:#E25910"/>
	</radialGradient>
	<polyline class="st10" points="43.1,39.3 24.2,60.9 62.6,71.4 43.1,39.3 	"/>
	
		<radialGradient id="SVGID_9_" cx="1977.7941" cy="-813.6924" r="143.7842" gradientTransform="matrix(0.4037 2.936470e-02 3.471803e-02 -0.4028 -727.3008 -381.3954)" gradientUnits="userSpaceOnUse">
		<stop  offset="0" style="stop-color:#FFE27E"/>
		<stop  offset="1" style="stop-color:#F6A500"/>
	</radialGradient>
	<polygon class="st11" points="0,14.6 36.1,28.6 43.1,39.3 	"/>
	
		<radialGradient id="SVGID_10_" cx="2008.3921" cy="-921.412" r="153.0182" gradientTransform="matrix(0.4047 1.259210e-02 1.492033e-02 -0.4047 -731.4601 -365.242)" gradientUnits="userSpaceOnUse">
		<stop  offset="0" style="stop-color:#FFE27E"/>
		<stop  offset="1" style="stop-color:#F6A500"/>
	</radialGradient>
	<polygon class="st12" points="36.1,28.6 48.4,44.3 62.6,71.3 43.1,39.3 	"/>
</g>
</svg>
