<?xml version="1.0" encoding="utf-8"?>
<!-- Generator: Adobe Illustrator 24.0.0, SVG Export Plug-In . SVG Version: 6.00 Build 0)  -->
<svg version="1.1" id="Ebene_1" xmlns="http://www.w3.org/2000/svg" xmlns:xlink="http://www.w3.org/1999/xlink" x="0px" y="0px"
	 viewBox="0 0 205 89" style="enable-background:new 0 0 205 89;" xml:space="preserve">
<style type="text/css">
	.st0{fill:#949096;}
	.st1{fill:#31256C;}
	.st2{fill:#F7A600;}
	.st3{fill:url(#SVGID_1_);}
	.st4{fill:url(#SVGID_2_);}
	.st5{fill:url(#SVGID_3_);}
	.st6{fill:url(#SVGID_4_);}
	.st7{fill:url(#SVGID_5_);}
	.st8{fill:url(#SVGID_6_);}
	.st9{fill:url(#SVGID_7_);}
	.st10{fill:url(#SVGID_8_);}
	.st11{fill:url(#SVGID_9_);}
	.st12{fill:url(#SVGID_10_);}
</style>
<path class="st0" d="M100.2,80h1.2v3.8c0,2.2-1,3.1-2.6,3.1c-1.6,0-2.6-0.9-2.6-3.1V80h1.2v3.9c0,1.5,0.6,2,1.4,2
	c0.8,0,1.4-0.5,1.4-2V80z M105.7,81.5c-0.7,0-1.2,0.4-1.7,0.8h0l-0.1-0.7h-1v5.1h1.2v-3.6c0.4-0.4,0.7-0.6,1.2-0.6
	c0.6,0,0.8,0.3,0.8,1.2v3h1.2v-3.2C107.2,82.3,106.7,81.5,105.7,81.5z M108.9,81.1v0.5l-0.7,0.1v0.9h0.7v4.2h1.2v-4.2h1v-0.9h-1
	v-0.6c0-0.6,0.2-0.9,0.6-0.9c0.2,0,0.4,0,0.6,0.1l0.2-0.9c-0.2-0.1-0.6-0.2-0.9-0.2C109.4,79.3,108.9,80.1,108.9,81.1z M113.9,81.5
	c-1.3,0-2.4,1-2.4,2.7c0,1.7,1.2,2.7,2.4,2.7c1.3,0,2.4-1,2.4-2.7C116.4,82.5,115.2,81.5,113.9,81.5z M113.9,85.9
	c-0.8,0-1.2-0.7-1.2-1.7c0-1,0.4-1.7,1.2-1.7c0.8,0,1.2,0.7,1.2,1.7C115.2,85.2,114.7,85.9,113.9,85.9z M119,85.9
	c-0.1,0-0.3-0.1-0.3-0.4v-6.1h-1.2v6c0,0.9,0.3,1.4,1.2,1.4c0.3,0,0.5,0,0.6-0.1l-0.2-0.9C119.1,85.9,119.1,85.9,119,85.9z
	 M123.5,79.4v1.8l0,0.8c-0.4-0.3-0.8-0.6-1.3-0.6c-1.1,0-2.2,1-2.2,2.7c0,1.7,0.8,2.7,2.1,2.7c0.6,0,1.1-0.3,1.4-0.7h0l0.1,0.6h1
	v-7.3L123.5,79.4L123.5,79.4z M123.5,85.3c-0.3,0.4-0.7,0.6-1.1,0.6c-0.7,0-1.2-0.6-1.2-1.7c0-1.1,0.5-1.7,1.2-1.7
	c0.3,0,0.7,0.1,1,0.4V85.3z M126.2,86.8h1.2v-5.1h-1.2V86.8z M126.8,79.4c-0.4,0-0.7,0.3-0.7,0.7c0,0.4,0.3,0.7,0.7,0.7
	s0.7-0.3,0.7-0.7C127.5,79.7,127.2,79.4,126.8,79.4z M131.7,81.5c-0.7,0-1.2,0.4-1.7,0.8h0l-0.1-0.7h-1v5.1h1.2v-3.6
	c0.4-0.4,0.7-0.6,1.2-0.6c0.6,0,0.8,0.3,0.8,1.2v3h1.2v-3.2C133.3,82.3,132.8,81.5,131.7,81.5z M137.4,85.9h-0.9
	c-0.6,0-0.8-0.2-0.8-0.5c0-0.2,0.1-0.3,0.2-0.5c0.2,0.1,0.5,0.1,0.7,0.1c1.1,0,1.9-0.6,1.9-1.7c0-0.3-0.1-0.7-0.3-0.9h0.9v-0.9h-1.8
	c-0.2-0.1-0.5-0.1-0.8-0.1c-1.1,0-2,0.7-2,1.8c0,0.6,0.3,1.1,0.7,1.3v0c-0.3,0.2-0.6,0.6-0.6,0.9c0,0.4,0.2,0.7,0.5,0.8v0
	c-0.5,0.3-0.7,0.7-0.7,1.1c0,0.9,0.9,1.3,2.1,1.3c1.7,0,2.7-0.8,2.7-1.8C139.2,86.3,138.6,85.9,137.4,85.9z M136.6,82.4
	c0.5,0,0.9,0.4,0.9,1c0,0.7-0.4,1-0.9,1c-0.5,0-0.9-0.4-0.9-1C135.7,82.7,136.1,82.4,136.6,82.4z M136.7,88.2
	c-0.8,0-1.3-0.3-1.3-0.7c0-0.2,0.1-0.5,0.4-0.7c0.2,0.1,0.4,0.1,0.7,0.1h0.7c0.6,0,0.9,0.1,0.9,0.5
	C138.1,87.8,137.5,88.2,136.7,88.2z M144.6,84.2c-0.1,0.5-0.3,1-0.4,1.4h0c-0.2-0.5-0.3-1-0.4-1.4l-0.9-2.5h-1.2l2,5l-0.1,0.3
	c-0.2,0.5-0.5,0.9-1,0.9c-0.1,0-0.3,0-0.4-0.1l-0.2,0.9c0.2,0.1,0.4,0.1,0.7,0.1c1.1,0,1.6-0.7,2.1-1.9l1.8-5.3h-1.1L144.6,84.2z
	 M149.4,81.5c-1.3,0-2.4,1-2.4,2.7c0,1.7,1.1,2.7,2.4,2.7c1.3,0,2.4-1,2.4-2.7C151.8,82.5,150.7,81.5,149.4,81.5z M149.4,85.9
	c-0.8,0-1.2-0.7-1.2-1.7c0-1,0.4-1.7,1.2-1.7s1.2,0.7,1.2,1.7C150.6,85.2,150.1,85.9,149.4,85.9z M156.1,85.1
	c-0.4,0.5-0.7,0.7-1.1,0.7c-0.6,0-0.8-0.3-0.8-1.2v-3h-1.2v3.2c0,1.3,0.5,2,1.6,2c0.7,0,1.2-0.3,1.6-0.9h0l0.1,0.8h1v-5.1h-1.2V85.1
	z M159.9,82.6L159.9,82.6l-0.1-0.9h-1v5.1h1.2v-3.1c0.3-0.8,0.8-1.1,1.2-1.1c0.2,0,0.4,0,0.5,0.1l0.2-1c-0.2-0.1-0.3-0.1-0.6-0.1
	C160.8,81.5,160.2,81.9,159.9,82.6z M167.4,81.5c-0.6,0-1.1,0.3-1.5,0.7h0l-0.1-0.5h-1v7.1h1.2v-1.6l0-0.8c0.4,0.3,0.9,0.6,1.3,0.6
	c1.1,0,2.2-1,2.2-2.8C169.4,82.6,168.7,81.5,167.4,81.5z M167,85.9c-0.3,0-0.6-0.1-1-0.4v-2.4c0.4-0.4,0.8-0.6,1.1-0.6
	c0.8,0,1.1,0.6,1.1,1.6C168.2,85.3,167.6,85.9,167,85.9z M172.7,81.5c-1.3,0-2.4,1-2.4,2.7c0,1.7,1.1,2.7,2.4,2.7
	c1.3,0,2.4-1,2.4-2.7C175.1,82.5,174,81.5,172.7,81.5z M172.7,85.9c-0.8,0-1.2-0.7-1.2-1.7c0-1,0.4-1.7,1.2-1.7
	c0.8,0,1.2,0.7,1.2,1.7C173.9,85.2,173.4,85.9,172.7,85.9z M178.4,85.9c-0.5,0-0.7-0.3-0.7-0.9v-2.4h1.3v-0.9h-1.3v-1.4h-1l-0.1,1.4
	l-0.8,0.1v0.9h0.7V85c0,1.1,0.4,1.8,1.6,1.8c0.4,0,0.8-0.1,1-0.2l-0.2-0.9C178.8,85.9,178.6,85.9,178.4,85.9z M184,83.9
	c0-1.4-0.7-2.4-2.1-2.4c-1.2,0-2.3,1-2.3,2.7c0,1.7,1.1,2.7,2.5,2.7c0.6,0,1.2-0.2,1.7-0.6l-0.4-0.8c-0.4,0.2-0.8,0.4-1.2,0.4
	c-0.8,0-1.4-0.5-1.5-1.4h3.2C184,84.4,184,84.2,184,83.9z M180.8,83.8c0.1-0.8,0.6-1.3,1.2-1.3c0.7,0,1,0.5,1,1.3H180.8z M188,81.5
	c-0.7,0-1.2,0.4-1.7,0.8h0l-0.1-0.7h-1v5.1h1.2v-3.6c0.4-0.4,0.7-0.6,1.2-0.6c0.6,0,0.8,0.3,0.8,1.2v3h1.2v-3.2
	C189.5,82.3,189.1,81.5,188,81.5z M193.1,85.9c-0.5,0-0.7-0.3-0.7-0.9v-2.4h1.3v-0.9h-1.3v-1.4h-1l-0.1,1.4l-0.8,0.1v0.9h0.7V85
	c0,1.1,0.4,1.8,1.6,1.8c0.4,0,0.8-0.1,1-0.2l-0.2-0.9C193.5,85.9,193.3,85.9,193.1,85.9z M194.7,86.8h1.2v-5.1h-1.2V86.8z
	 M195.3,79.4c-0.4,0-0.7,0.3-0.7,0.7c0,0.4,0.3,0.7,0.7,0.7c0.4,0,0.7-0.3,0.7-0.7C196.1,79.7,195.8,79.4,195.3,79.4z M199.5,81.5
	c-0.8,0-1.5,0.3-2.1,0.7l0.4,0.8c0.4-0.3,0.9-0.5,1.4-0.5c0.7,0,0.9,0.5,0.9,1c-2.1,0.2-3,0.8-3,1.9c0,0.9,0.6,1.5,1.5,1.5
	c0.6,0,1.1-0.3,1.6-0.7h0l0.1,0.6h1v-3C201.4,82.3,200.8,81.5,199.5,81.5z M200.2,85.4c-0.4,0.3-0.7,0.6-1.1,0.6s-0.7-0.2-0.7-0.7
	c0-0.5,0.5-0.9,1.8-1.1L200.2,85.4L200.2,85.4z M204.5,85.9c-0.1,0-0.1,0-0.2,0c-0.1,0-0.3-0.1-0.3-0.4v-6.1h-1.2v6
	c0,0.9,0.3,1.4,1.2,1.4c0.3,0,0.5,0,0.6-0.1L204.5,85.9z"/>
<path class="st1" d="M91.1,43.7c-0.5-0.1-1.4-0.2-2.4-0.2c-1.1,0-1.9,0-2.5,0.2L77,71.2l0.1,0.2c0.7,0.2,1.4,0.3,2.2,0.3
	s1.4-0.1,1.8-0.2l2.2-6.8l2.4,0h5.6l2.4,0l1.5,4.8c0.3,0.9,0.6,1.5,1,1.8c0.4,0.3,1,0.5,1.9,0.5s1.6-0.2,2.2-0.6L91.1,43.7z
	 M90.5,61.2h-4.1l-2.1,0l2.4-7.4c0.7-2.4,1.3-4.4,1.6-5.9h0.2c0.5,1.9,1.2,4.3,2.2,7.4l1.9,5.9C92.3,61.2,91.6,61.2,90.5,61.2z
	 M106.7,71.2c1,0.5,2.3,0.8,3.7,0.8c2.8,0,5.3-1,7.3-3c-0.1-0.5-0.3-0.9-0.7-1.4c-0.3-0.5-0.7-0.8-1.1-1.1c-1.8,1.4-3.4,2-4.9,2
	c-3.1,0-4.6-2.3-4.6-7c0-2.5,0.3-4.3,1.1-5.6c0.7-1.2,1.7-1.9,3-1.9c2.4,0,3.6,1.5,3.6,4.6v0.5c0.5,0.1,1.1,0.2,1.8,0.2
	c1.4,0,2.1-0.8,2.1-2.3c0-0.8-0.2-1.5-0.5-2.3c-0.3-0.8-0.8-1.4-1.5-2s-1.4-1-2.3-1.4c-0.9-0.3-1.9-0.5-3.1-0.5
	c-1.1,0-2.2,0.2-3.2,0.7s-1.9,1.1-2.7,2c-0.8,0.9-1.4,2-1.8,3.2s-0.7,2.8-0.7,4.4c0,1.6,0.2,3.1,0.5,4.4c0.3,1.3,0.9,2.5,1.6,3.4
	C104.8,70,105.6,70.7,106.7,71.2z M132.3,70.2c0-0.6-0.1-1.2-0.3-1.8h-2.8c-1.1,0-1.7-0.6-1.7-1.8V54.4l5,0.1c0.1-0.4,0.2-1,0.2-1.5
	s-0.1-1.1-0.2-1.6l-5,0.1v-6l-0.3-0.3h-1.6c-0.8,0-1.4,0.2-1.8,0.6c-0.3,0.4-0.5,1.1-0.5,2.1v3.6l-3-0.1c-0.1,0.5-0.2,1-0.2,1.6
	s0.1,1.1,0.2,1.5l3,0v13c0,2.8,1.4,4.2,4.3,4.2c1.5,0,3-0.1,4.6-0.3C132.2,71.2,132.3,70.8,132.3,70.2z M152.1,57.1
	c-0.4-1.3-1-2.4-1.7-3.4c-0.8-0.9-1.7-1.7-2.8-2.2s-2.3-0.8-3.8-0.8s-2.7,0.2-3.8,0.8s-2,1.2-2.8,2.2s-1.3,2.1-1.7,3.4
	s-0.6,2.7-0.6,4.3c0,1.6,0.2,3.1,0.6,4.3s1,2.4,1.7,3.3c0.8,0.9,1.7,1.7,2.8,2.2s2.3,0.8,3.8,0.8c2.4,0,4.4-0.8,5.9-2.2
	c1.9-1.9,2.9-4.7,2.9-8.3C152.7,59.9,152.5,58.4,152.1,57.1z M143.9,68.8c-2.9,0-4.4-2.5-4.4-7.4s1.5-7.4,4.4-7.4
	c3,0,4.5,2.5,4.5,7.4C148.4,66.3,146.9,68.8,143.9,68.8z M168.1,55.7c0.4,0.6,0.6,1.6,0.6,3v10.3c0,0.9,0.2,1.6,0.5,2s1,0.7,1.9,0.7
	c0.9,0,1.8-0.3,2.5-0.9c-0.5-0.9-0.7-2.1-0.7-3.7v-9.5c0-2-0.4-3.7-1.3-4.9c-0.9-1.2-2.2-1.8-4.1-1.8c-2.3,0-4.5,0.9-6.5,2.7
	c-0.1-1.7-0.9-2.5-2.3-2.5h-1.6l-0.2,0.2v20c0.3,0.1,0.6,0.1,0.9,0.1c0.4,0,0.8,0,1.2,0c0.9,0,1.6-0.1,2.1-0.2V57.4
	c0.7-0.8,1.5-1.4,2.5-1.8c0.9-0.5,1.9-0.7,2.8-0.7C167.1,54.8,167.8,55.1,168.1,55.7z M181,48.1c1.1,0,1.8-0.2,2.1-0.5
	s0.5-0.9,0.5-1.9c0-1-0.2-1.7-0.5-1.9s-1-0.4-2.1-0.4c-0.9,0-1.6,0.1-2,0.3c-0.4,0.2-0.6,0.9-0.6,2c0,0.7,0.1,1.3,0.4,1.8
	C179.2,47.9,180,48.1,181,48.1z M179.6,71.5c0.5,0.1,1.2,0.2,2.1,0.2c0.9,0,1.6-0.1,2.1-0.2V54.9c0-1.1-0.3-2-0.9-2.7
	c-0.6-0.7-1.4-1-2.4-1H180c-0.8,0-1.7,0-2.6,0.2c-0.1,0.6-0.2,1.1-0.2,1.5s0.1,0.9,0.2,1.5h0.4c0.6,0,1.1,0.2,1.4,0.5
	s0.4,0.9,0.4,1.6V71.5z M203.7,67.6c-0.4-0.5-0.7-0.8-1.1-1.1c-1.8,1.4-3.4,2-4.9,2c-3.1,0-4.6-2.3-4.6-7c0-2.5,0.4-4.3,1.1-5.6
	s1.7-1.9,3-1.9c2.4,0,3.6,1.5,3.6,4.6v0.5c0.5,0.1,1.1,0.2,1.8,0.2c1.4,0,2.1-0.8,2.1-2.3c0-0.8-0.2-1.5-0.5-2.3s-0.8-1.4-1.5-2
	s-1.4-1-2.3-1.4c-0.9-0.3-1.9-0.5-3.1-0.5c-1.1,0-2.2,0.2-3.2,0.7s-1.9,1.1-2.7,2c-0.8,0.9-1.4,2-1.9,3.2s-0.7,2.8-0.7,4.4
	c0,1.6,0.2,3.1,0.5,4.4s0.9,2.5,1.6,3.4s1.6,1.7,2.6,2.2c1,0.5,2.3,0.8,3.7,0.8c2.9,0,5.3-1,7.3-3C204.3,68.5,204.1,68.1,203.7,67.6
	z"/>
<g>
	<polygon class="st2" points="62.6,-0.2 51.2,22.2 47.3,34.5 36.1,28.4 0,14.4 24.2,60.7 62.6,71.2 73.8,39.1 	"/>
	<g>
		
			<radialGradient id="SVGID_1_" cx="3343.0537" cy="2570.1719" r="162.7596" gradientTransform="matrix(0.4037 2.936470e-02 -3.471803e-02 0.4028 -1217.2046 -1096.3282)" gradientUnits="userSpaceOnUse">
			<stop  offset="0" style="stop-color:#F6A500"/>
			<stop  offset="1" style="stop-color:#E25910"/>
		</radialGradient>
		<polygon class="st3" points="36.1,28.4 48.4,44.1 47.3,34.5 		"/>
		
			<radialGradient id="SVGID_2_" cx="3359.2476" cy="2524.1086" r="695.488" gradientTransform="matrix(0.4037 2.936470e-02 -3.471803e-02 0.4028 -1217.5641 -1092.1569)" gradientUnits="userSpaceOnUse">
			<stop  offset="0" style="stop-color:#F6A500"/>
			<stop  offset="1" style="stop-color:#E25910"/>
		</radialGradient>
		<polygon class="st4" points="62.6,-0.2 51.2,22.2 51.9,37.6 		"/>
		
			<radialGradient id="SVGID_3_" cx="3361.6011" cy="2608.4761" r="167.1484" gradientTransform="matrix(0.4037 2.936470e-02 -3.471803e-02 0.4028 -1216.9056 -1099.797)" gradientUnits="userSpaceOnUse">
			<stop  offset="0" style="stop-color:#F6A500"/>
			<stop  offset="1" style="stop-color:#E25910"/>
		</radialGradient>
		<polyline class="st5" points="51.2,22.2 48.4,44.1 62.6,71.1 51.9,37.6 51.2,22.2 		"/>
		
			<radialGradient id="SVGID_4_" cx="3408.2959" cy="2567.3633" r="158.5451" gradientTransform="matrix(0.4037 2.936470e-02 -3.471803e-02 0.4028 -1217.2264 -1096.0739)" gradientUnits="userSpaceOnUse">
			<stop  offset="0" style="stop-color:#FFE27E"/>
			<stop  offset="1" style="stop-color:#F6A500"/>
		</radialGradient>
		<polygon class="st6" points="47.3,34.5 51.2,22.2 48.4,44.1 		"/>
		
			<radialGradient id="SVGID_5_" cx="3383.052" cy="2447.6987" r="174.0433" gradientTransform="matrix(0.4037 2.936470e-02 -3.471803e-02 0.4028 -1218.1606 -1085.2371)" gradientUnits="userSpaceOnUse">
			<stop  offset="0" style="stop-color:#FFE27E"/>
			<stop  offset="1" style="stop-color:#F6A500"/>
		</radialGradient>
		<polyline class="st7" points="51.9,37.6 73.8,39.1 62.6,-0.2 51.9,37.6 		"/>
		
			<radialGradient id="SVGID_6_" cx="3354.8232" cy="-1808.2635" r="187.7471" gradientTransform="matrix(0.1491 0.2946 -0.4852 0.1388 -1311.7299 -717.4459)" gradientUnits="userSpaceOnUse">
			<stop  offset="0" style="stop-color:#FFE27E"/>
			<stop  offset="1" style="stop-color:#F6A500"/>
		</radialGradient>
		<polyline class="st8" points="51.9,37.6 62.6,71.2 73.8,39.1 51.9,37.6 		"/>
		
			<radialGradient id="SVGID_7_" cx="-6229.6748" cy="1221.8748" r="504.8669" gradientTransform="matrix(-0.2792 -0.2327 0.3777 -0.2712 -2165.6353 -1069.9747)" gradientUnits="userSpaceOnUse">
			<stop  offset="0" style="stop-color:#F6A500"/>
			<stop  offset="1" style="stop-color:#E25910"/>
		</radialGradient>
		<polyline class="st9" points="0,14.4 43.1,39.1 43.1,39.1 24.2,60.7 0,14.4 		"/>
		
			<radialGradient id="SVGID_8_" cx="3940.9204" cy="-422.4447" r="503.7974" gradientTransform="matrix(0.2748 0.2358 -0.383 0.2666 -1234.2186 -797.7366)" gradientUnits="userSpaceOnUse">
			<stop  offset="0" style="stop-color:#F6A500"/>
			<stop  offset="1" style="stop-color:#E25910"/>
		</radialGradient>
		<polyline class="st10" points="43.1,39.1 24.2,60.7 62.6,71.2 43.1,39.1 		"/>
		
			<radialGradient id="SVGID_9_" cx="3335.4204" cy="2465.7065" r="143.7842" gradientTransform="matrix(0.4037 2.936470e-02 -3.471803e-02 0.4028 -1218.0199 -1086.8678)" gradientUnits="userSpaceOnUse">
			<stop  offset="0" style="stop-color:#FFE27E"/>
			<stop  offset="1" style="stop-color:#F6A500"/>
		</radialGradient>
		<polygon class="st11" points="0,14.4 36.1,28.4 43.1,39.1 		"/>
		
			<radialGradient id="SVGID_10_" cx="3311.6099" cy="2661.8938" r="153.0182" gradientTransform="matrix(0.4047 1.259210e-02 -1.492033e-02 0.4047 -1232.9038 -1086.2001)" gradientUnits="userSpaceOnUse">
			<stop  offset="0" style="stop-color:#FFE27E"/>
			<stop  offset="1" style="stop-color:#F6A500"/>
		</radialGradient>
		<polygon class="st12" points="36.1,28.4 48.4,44.1 62.6,71.1 43.1,39.1 		"/>
	</g>
</g>
</svg>
